<svg xmlns="http://www.w3.org/2000/svg" viewBox="0 0 64 64" role="img" aria-label="Coffee cup favicon">
  <defs>
    <linearGradient id="bg" x1="0" y1="0" x2="1" y2="1">
      <stop offset="0%" stop-color="#f6f1e7" />
      <stop offset="100%" stop-color="#e8ddca" />
    </linearGradient>
  </defs>
  <rect width="64" height="64" rx="14" fill="url(#bg)" />
  <path d="M18 26h26a2 2 0 0 1 2 2v7c0 8-6 14-14 14h-4c-8 0-14-6-14-14v-7a2 2 0 0 1 2-2z" fill="#6b3f24" />
  <path d="M43 30h5a5 5 0 0 1 0 10h-5" fill="none" stroke="#6b3f24" stroke-width="4" stroke-linecap="round" />
  <rect x="20" y="44" width="28" height="3" rx="1.5" fill="#8a5a38" opacity="0.9" />
  <path d="M25 20c0-3 3-3 3-6" fill="none" stroke="#9c6b45" stroke-width="2.5" stroke-linecap="round" />
  <path d="M33 20c0-3 3-3 3-6" fill="none" stroke="#9c6b45" stroke-width="2.5" stroke-linecap="round" />
</svg>
